<svg xmlns="http://www.w3.org/2000/svg" width="400" height="220" viewBox="0 0 400 220" fill="none" aria-hidden="true">
  <rect width="400" height="220" fill="#fafafa"/>
  <rect x="12" y="12" width="376" height="196" rx="10" fill="#fff" stroke="#e4e4e7" stroke-width="1"/>
  <!-- window chrome -->
  <rect x="12" y="12" width="376" height="28" rx="10" fill="#f4f4f5"/>
  <circle cx="28" cy="26" r="4" fill="#fecaca"/>
  <circle cx="42" cy="26" r="4" fill="#fde68a"/>
  <circle cx="56" cy="26" r="4" fill="#bbf7d0"/>
  <text x="200" y="29" text-anchor="middle" fill="#71717a" font-family="ui-sans-serif, system-ui, sans-serif" font-size="11" font-weight="600">System Settings</text>
  <!-- sidebar -->
  <rect x="20" y="48" width="112" height="152" rx="6" fill="#fafafa" stroke="#e4e4e7"/>
  <rect x="28" y="58" width="96" height="10" rx="2" fill="#e4e4e7"/>
  <rect x="28" y="76" width="88" height="10" rx="2" fill="#e4e4e7"/>
  <rect x="24" y="94" width="104" height="26" rx="5" fill="#e4e4e7"/>
  <text x="76" y="111" text-anchor="middle" fill="#3f3f46" font-family="ui-sans-serif, system-ui, sans-serif" font-size="9" font-weight="600">Privacy &amp; Security</text>
  <rect x="28" y="128" width="72" height="8" rx="2" fill="#f4f4f5"/>
  <rect x="28" y="142" width="80" height="8" rx="2" fill="#f4f4f5"/>
  <!-- main pane -->
  <rect x="144" y="48" width="236" height="152" rx="6" fill="#fff" stroke="#e4e4e7"/>
  <text x="156" y="72" fill="#52525b" font-family="ui-sans-serif, system-ui, sans-serif" font-size="10" font-weight="600">Security</text>
  <rect x="156" y="82" width="200" height="36" rx="6" fill="#fef9c3" stroke="#eab308" stroke-width="1"/>
  <text x="168" y="100" fill="#713f12" font-family="ui-sans-serif, system-ui, sans-serif" font-size="8">&quot;workbench&quot; was blocked</text>
  <text x="168" y="112" fill="#a16207" font-family="ui-sans-serif, system-ui, sans-serif" font-size="7">(example)</text>
  <rect x="156" y="124" width="108" height="28" rx="6" fill="#18181b"/>
  <text x="210" y="142" text-anchor="middle" fill="#fafafa" font-family="ui-sans-serif, system-ui, sans-serif" font-size="10" font-weight="600">Open Anyway</text>
  <rect x="268" y="128" width="72" height="20" rx="10" fill="#dc2626"/>
  <text x="304" y="142" text-anchor="middle" fill="#fff" font-family="ui-sans-serif, system-ui, sans-serif" font-size="8" font-weight="700">Click</text>
</svg>
